<svg aria-hidden="true" style="position: absolute; width: 0; height: 0; overflow: hidden;" version="1.1" xmlns="http://www.w3.org/2000/svg" xmlns:xlink="http://www.w3.org/1999/xlink">
<defs>
<symbol id="icon-arrow" viewBox="0 0 36 32">
<path d="M1.062 17.414c-0.362-0.362-0.586-0.862-0.586-1.414s0.224-1.052 0.586-1.414l12.728-12.728c0.364-0.377 0.874-0.611 1.439-0.611 1.105 0 2 0.895 2 2 0 0.565-0.234 1.074-0.61 1.438l-0.001 0.001-11.314 11.314 11.314 11.314c0.377 0.364 0.611 0.874 0.611 1.439 0 1.105-0.895 2-2 2-0.565 0-1.074-0.234-1.438-0.61l-0.001-0.001-12.73-12.728zM36 18h-33.524v-4h33.524v4z"></path>
</symbol>
<symbol id="icon-instagram" viewBox="0 0 32 32">
<path d="M0 16c0-8.837 7.163-16 16-16s16 7.163 16 16-7.163 16-16 16-16-7.163-16-16zM16 7.467c-2.317 0-2.608 0.010-3.518 0.051-0.908 0.042-1.528 0.186-2.070 0.397-0.592 0.226-1.097 0.561-1.512 0.983l-0.001 0.001c-0.423 0.416-0.758 0.92-0.975 1.482l-0.010 0.029c-0.211 0.543-0.355 1.163-0.396 2.071-0.040 0.91-0.051 1.201-0.051 3.52 0 2.317 0.010 2.607 0.051 3.517 0.042 0.908 0.186 1.528 0.397 2.070 0.226 0.592 0.561 1.097 0.983 1.512l0.001 0.001c0.474 0.474 0.95 0.767 1.511 0.985 0.543 0.21 1.163 0.354 2.072 0.396 0.91 0.041 1.2 0.052 3.518 0.052 2.317 0 2.607-0.010 3.518-0.052 0.908-0.042 1.529-0.185 2.072-0.396 0.591-0.226 1.095-0.561 1.509-0.984l0.001-0.001c0.475-0.475 0.767-0.95 0.985-1.512 0.21-0.543 0.354-1.163 0.397-2.071 0.040-0.91 0.051-1.2 0.051-3.518s-0.010-2.608-0.051-3.518c-0.043-0.909-0.187-1.53-0.397-2.072-0.227-0.591-0.562-1.095-0.984-1.509l-0.001-0.001c-0.415-0.423-0.919-0.758-1.481-0.974l-0.029-0.010c-0.545-0.211-1.165-0.355-2.074-0.397-0.91-0.041-1.2-0.051-3.518-0.051h0.003z"></path>
<path d="M15.235 9.005h0.765c2.279 0 2.549 0.008 3.449 0.050 0.832 0.037 1.283 0.176 1.584 0.293 0.398 0.155 0.682 0.34 0.98 0.638 0.3 0.299 0.484 0.583 0.64 0.982 0.116 0.3 0.255 0.752 0.293 1.584 0.041 0.9 0.050 1.17 0.050 3.447s-0.009 2.547-0.050 3.447c-0.038 0.832-0.177 1.284-0.294 1.584-0.144 0.384-0.362 0.712-0.637 0.979l-0.001 0.001c-0.268 0.276-0.596 0.494-0.962 0.632l-0.018 0.006c-0.301 0.118-0.753 0.256-1.585 0.294-0.9 0.041-1.17 0.050-3.449 0.050s-2.548-0.009-3.448-0.050c-0.832-0.038-1.283-0.177-1.584-0.294-0.385-0.144-0.713-0.362-0.981-0.637l-0.001-0.001c-0.276-0.268-0.493-0.596-0.632-0.962l-0.006-0.018c-0.117-0.301-0.256-0.753-0.294-1.585-0.041-0.9-0.050-1.17-0.050-3.448 0-2.28 0.009-2.548 0.050-3.447 0.038-0.833 0.177-1.284 0.294-1.585 0.154-0.398 0.34-0.683 0.638-0.981s0.583-0.484 0.982-0.639c0.3-0.117 0.752-0.256 1.584-0.294 0.787-0.036 1.093-0.046 2.683-0.048v0.002zM20.555 10.422c-0.566 0-1.024 0.458-1.024 1.024s0.458 1.024 1.024 1.024v0c0.566 0 1.024-0.458 1.024-1.024s-0.458-1.024-1.024-1.024v0zM16 11.618c-2.42 0-4.383 1.962-4.383 4.383s1.962 4.383 4.383 4.383v0c2.42 0 4.383-1.962 4.383-4.383s-1.962-4.383-4.383-4.383v0z"></path>
<path d="M16 13.155c1.571 0 2.845 1.274 2.845 2.845s-1.274 2.845-2.845 2.845v0c-1.571 0-2.845-1.274-2.845-2.845s1.274-2.845 2.845-2.845v0z"></path>
</symbol>
<symbol id="icon-burger-menu" viewBox="0 0 32 32">
<path d="M29.333 24.007c0 0.733-0.595 1.327-1.327 1.327h-10.68c-0.733 0-1.327-0.594-1.327-1.327s0.594-1.327 1.327-1.327h10.68c0.733 0 1.327 0.593 1.327 1.327zM29.333 16c0 0.733-0.595 1.327-1.327 1.327h-24.013c-0.733 0-1.327-0.594-1.327-1.327s0.594-1.327 1.327-1.327h24.013c0.733 0 1.327 0.595 1.327 1.327zM28.007 9.32c0.733 0 1.327-0.594 1.327-1.327s-0.594-1.327-1.327-1.327h-16.013c-0.733 0-1.327 0.594-1.327 1.327s0.594 1.327 1.327 1.327h16.013z"></path>
</symbol>
<symbol id="icon-facebook" viewBox="0 0 32 32">
<path d="M0 16c0-8.837 7.163-16 16-16s16 7.163 16 16-7.163 16-16 16-16-7.163-16-16zM17.668 25.408v-8.705h2.403l0.318-3h-2.721l0.004-1.501c0-0.783 0.074-1.202 1.198-1.202h1.502v-3h-2.402c-2.887 0-3.903 1.455-3.903 3.902v1.801h-1.8v3h1.8v8.705h3.602z"></path>
<symbol id="icon-logo" viewBox="0 0 77 32">
<path d="M4.167 7.206l-1.268-0.767c-0.794-0.484-1.361-0.959-1.7-1.425-0.334-0.472-0.501-1.014-0.501-1.625 0-0.917 0.317-1.661 0.95-2.234 0.641-0.572 1.468-0.858 2.485-0.858 0.972 0 1.863 0.272 2.675 0.816v1.892c-0.839-0.805-1.742-1.208-2.708-1.208-0.545 0-0.992 0.128-1.342 0.384-0.35 0.25-0.525 0.572-0.525 0.966 0 0.35 0.128 0.678 0.383 0.983s0.669 0.624 1.242 0.958l1.275 0.75c1.422 0.844 2.133 1.922 2.133 3.233 0 0.933-0.314 1.692-0.941 2.275-0.622 0.583-1.434 0.875-2.433 0.875-1.151 0-2.197-0.353-3.142-1.058v-2.116c0.9 1.139 1.941 1.708 3.125 1.708 0.523 0 0.956-0.144 1.3-0.434 0.351-0.294 0.526-0.661 0.526-1.099 0-0.711-0.512-1.384-1.534-2.017zM17.308 0.447h1.667v11.642h-1.667v-5.067h-6.542v5.067h-1.666v-11.642h1.667v5.033h6.542v-5.033zM27.267 0.281c1.8 0 3.297 0.569 4.491 1.708 1.2 1.139 1.8 2.567 1.8 4.283s-0.605 3.139-1.816 4.267c-1.206 1.122-2.728 1.683-4.567 1.683-1.756 0-3.22-0.561-4.392-1.683-1.166-1.128-1.749-2.539-1.749-4.233 0-1.739 0.588-3.178 1.766-4.316 1.179-1.139 2.667-1.708 4.467-1.708zM27.333 1.864c-1.333 0-2.43 0.417-3.291 1.25-0.855 0.833-1.284 1.897-1.284 3.191 0 1.256 0.43 2.3 1.291 3.133s1.939 1.25 3.233 1.25c1.3 0 2.384-0.425 3.25-1.275 0.873-0.85 1.308-1.908 1.308-3.175 0-1.233-0.436-2.269-1.308-3.108-0.866-0.845-1.933-1.267-3.2-1.267zM35.509 12.089v-11.659h3.691c1.111 0 1.998 0.3 2.658 0.9s0.992 1.406 0.992 2.417c0 0.678-0.17 1.277-0.508 1.799-0.334 0.513-0.81 0.909-1.372 1.135l-0.020 0.007c-0.589 0.233-1.434 0.35-2.534 0.35h-1.232v5.050h-1.675zM38.908 1.914h-1.724v3.642h1.825c0.678 0 1.2-0.159 1.567-0.475 0.366-0.323 0.55-0.781 0.55-1.375 0-1.195-0.739-1.792-2.217-1.792zM12.001 28.725c0 0.994-0.341 1.788-1.025 2.383-0.678 0.595-1.628 0.892-2.85 0.892h-6.676v-11.55h5.584c0.722 0 1.35 0.070 1.883 0.208 0.539 0.139 0.972 0.331 1.3 0.575 0.328 0.239 0.572 0.523 0.733 0.851s0.242 0.686 0.242 1.075c0 0.003 0 0.006 0 0.010 0 0.805-0.335 1.532-0.874 2.048l-0.001 0.001c-0.245 0.228-0.492 0.389-0.742 0.484 0.789 0.311 1.389 0.705 1.8 1.183 0.417 0.472 0.625 1.086 0.625 1.842zM7.934 23.775c0-0.556-0.183-0.925-0.55-1.109s-0.939-0.275-1.717-0.275h-0.735v2.766h0.75c0.794 0 1.367-0.091 1.717-0.274 0.356-0.183 0.533-0.553 0.533-1.108zM8.501 28.583c0-0.988-0.717-1.483-2.15-1.483h-1.417v2.958h1.417c1.433 0 2.15-0.491 2.15-1.475zM26.416 32h-3.566l-0.942-2.342h-5.017l-0.959 2.342h-3.566l5.108-11.55h3.85l5.092 11.55zM21.109 27.65l-1.692-4.217-1.708 4.217h3.401zM40.1 32h-4.25l-4.416-5.408v5.408h-3.484v-11.55h3.484v5.166l4.183-5.166h3.783l-4.3 5.408 5.001 6.142zM50.324 32h-8.708v-11.55h8.567v2.317h-5.083v2.116h4.85v2.325h-4.85v2.466h5.225v2.325zM63.849 32h-3.742l-0.908-2.050c-0.334-0.75-0.633-1.297-0.9-1.641-0.267-0.351-0.528-0.572-0.783-0.667-0.25-0.1-0.575-0.149-0.975-0.149h-0.392v4.508h-3.483v-11.55h5.924c0.956 0 1.739 0.194 2.35 0.583s1.050 0.861 1.317 1.417c0.272 0.556 0.408 1.084 0.408 1.584 0 0.583-0.114 1.078-0.341 1.483-0.223 0.4-0.459 0.691-0.709 0.875-0.242 0.178-0.517 0.352-0.804 0.507l-0.037 0.018c0.372 0.216 0.678 0.475 0.917 0.775 0.245 0.294 0.575 0.894 0.991 1.799l1.168 2.509zM59.116 24.1c0-0.533-0.175-0.905-0.526-1.116s-0.919-0.316-1.708-0.316h-0.733v2.783h0.75c0.85 0 1.43-0.092 1.742-0.275 0.316-0.188 0.475-0.548 0.475-1.075zM76.199 20.45l-4.525 6.258v5.292h-3.484v-5.225l-4.608-6.325h3.617l2.65 3.634 2.658-3.634h3.691z"></path>
</symbol>
</symbol>
</defs>
</svg>

